<svg id="Layer_1" data-name="Layer 1" xmlns="http://www.w3.org/2000/svg" viewBox="0 0 841.89 595.28"><defs><style>.cls-1{fill:#fff;}.cls-2{fill:#a4c439;}</style></defs><title>Artboard 1</title><path class="cls-1" d="M287.56,232.92a22.74,22.74,0,0,0-22.73,22.74l0,95.21a22.73,22.73,0,1,0,45.47,0V255.64a22.75,22.75,0,0,0-22.75-22.72"/><path class="cls-1" d="M470.92,147.42l15.87-29a3.15,3.15,0,1,0-5.52-3l-16,29.27a110.84,110.84,0,0,0-89,0l-16-29.21a3.15,3.15,0,1,0-5.52,3l15.88,29c-31.2,16.09-52.27,46.73-52.25,81.9l204.81,0c0-35.17-21-65.74-52.18-81.86M374.1,192.2a8.59,8.59,0,1,1,8.6-8.58,8.59,8.59,0,0,1-8.6,8.58m93.26,0a8.59,8.59,0,1,1,8.57-8.58,8.57,8.57,0,0,1-8.57,8.58"/><path class="cls-1" d="M319.16,384.76A24.22,24.22,0,0,0,343.42,409h16.52l0,50.38a22.73,22.73,0,1,0,45.45,0V409h30.7V459.4a22.74,22.74,0,0,0,45.49,0V409h16.58a24.28,24.28,0,0,0,24.26-24.27l0-147.56-203.27,0Z"/><path class="cls-1" d="M553.91,232.89a22.73,22.73,0,0,0-22.73,22.74v95.21a22.74,22.74,0,1,0,45.47,0l0-95.21a22.73,22.73,0,0,0-22.73-22.74"/><path class="cls-2" d="M287.56,232.92a22.74,22.74,0,0,0-22.73,22.74l0,95.21a22.73,22.73,0,1,0,45.47,0V255.64a22.75,22.75,0,0,0-22.75-22.72m183.35-85.5,15.87-29a3.15,3.15,0,1,0-5.52-3l-16,29.28a110.79,110.79,0,0,0-89,0l-16-29.21a3.15,3.15,0,1,0-5.52,3l15.88,29c-31.2,16.09-52.27,46.72-52.25,81.9l204.81,0c0-35.17-21-65.74-52.18-81.86M374.1,192.2a8.59,8.59,0,1,1,8.6-8.58,8.59,8.59,0,0,1-8.6,8.58m93.26,0a8.59,8.59,0,1,1,8.57-8.58,8.58,8.58,0,0,1-8.57,8.58m-148.23,45,0,147.56A24.23,24.23,0,0,0,343.42,409h16.52l0,50.38a22.73,22.73,0,1,0,45.47,0V409h30.7V459.4a22.74,22.74,0,1,0,45.47,0V409h16.58a24.27,24.27,0,0,0,24.27-24.27l0-147.56Zm257.52,18.41a22.73,22.73,0,1,0-45.46,0l0,95.21a22.73,22.73,0,1,0,45.47,0Z"/></svg>
