<?xml version="1.0" encoding="utf-8"?>
<!-- Generator: Adobe Illustrator 22.1.0, SVG Export Plug-In . SVG Version: 6.00 Build 0)  -->
<svg version="1.1" id="Layer_1" xmlns="http://www.w3.org/2000/svg" xmlns:xlink="http://www.w3.org/1999/xlink" x="0px" y="0px"
	 viewBox="0 0 230.9 231.3" style="enable-background:new 0 0 230.9 231.3;" xml:space="preserve">
<style type="text/css">
	.st0{fill:#FF9900;}
	.st1{fill:#FFFFFF;}
</style>
<g>
	<rect class="st0" width="231.3" height="231.3"/>
	<g>
		<path class="st1" d="M80.6,105.8c0,2,0.3,3.6,0.7,4.6c0.3,1.3,1,2.3,1.7,4c0.3,0.3,0.3,1,0.3,1.3c0,0.7-0.3,1-1,1.7l-3.3,2.3
			c-0.7,0.3-1,0.3-1.3,0.3c-0.7,0-1-0.3-1.7-0.7c-0.7-0.7-1.3-1.7-2-2.6c-0.7-1-1-2-1.7-3.3c-4.3,5-9.6,7.3-15.9,7.3
			c-4.6,0-7.9-1.3-10.6-4c-2.6-2.6-4-5.9-4-10.2c0-4.6,1.7-8.3,5-10.9c3.3-2.6,7.6-4.3,13.2-4.3c1.7,0,3.6,0,5.6,0.3
			c2,0.3,4,0.7,6.3,1.3v-3.6c0-4-1-6.9-2.6-8.6C67.7,79,64.8,78,60.8,78c-2,0-3.6,0.3-5.6,0.7c-2,0.3-4,1-5.6,2
			c-1,0.3-1.7,0.7-2,0.7s-0.7,0-1,0c-0.7,0-1-0.7-1-1.7V77c0-1,0-1.7,0.3-2c0.3-0.3,0.7-0.7,1.7-1c2-1,4-1.7,6.6-2.3s5.3-1,8.3-1
			c6.3,0,10.9,1.3,13.9,4.3c3,3,4.3,7.3,4.3,13.2C80.6,88.2,80.6,105.8,80.6,105.8z M58.8,114c1.7,0,3.6-0.3,5.6-1
			c2-0.7,3.6-1.7,5-3.3c1-1,1.3-2,2-3.3c0.3-1.3,0.7-3,0.7-4.6v-2.6c-1.7-0.3-3.3-0.7-5-1c-1.7-0.3-3.3-0.3-5-0.3
			c-3.6,0-6.3,0.7-7.9,2.3c-1.7,1.3-2.6,3.6-2.6,6.3c0,2.6,0.7,4.3,2,5.6C54.5,113.4,56.2,114,58.8,114z M101.8,119.6
			c-1,0-1.7-0.3-2-0.7c-0.3-0.3-0.7-1-1-2L85.9,75.7c-0.3-1-0.3-1.7-0.3-2.3c0-1,0.3-1.3,1.3-1.3h5.3c1,0,1.7,0.3,2,0.7
			c0.3,0.3,0.7,1,1,2l8.9,35.4l8.3-35.4c0.3-1,0.7-1.7,1-2c0.3-0.3,1-0.7,2.3-0.7h4.3c1,0,1.7,0.3,2.3,0.7c0.3,0.3,0.7,1,1,2l8.6,36
			l9.3-36c0.3-1,0.7-1.7,1-2c0.3-0.3,1-0.7,2-0.7h5c1,0,1.3,0.3,1.3,1.3c0,0.3,0,0.7,0,1S150,75,150,75.7L137.1,117
			c-0.3,1-0.7,1.7-1,2s-1,0.7-2,0.7h-4.6c-1,0-1.7-0.3-2.3-0.7c-0.3-0.3-0.7-1-1-2.3l-8.3-34l-8.3,34.4c-0.3,1-0.7,1.7-1,2.3
			c-0.3,0.3-1.3,0.7-2.3,0.7h-4.6V119.6z M170.5,121.3c-3,0-5.6-0.3-8.3-1c-2.6-0.7-4.6-1.3-6.3-2.3c-1-0.7-1.3-1-1.7-1.7
			c-0.3-0.7-0.3-1-0.3-1.7v-2.3c0-1,0.3-1.7,1.3-1.7c0.3,0,0.7,0,1,0.3c0.3,0,0.7,0.3,1.3,0.7c1.7,0.7,3.6,1.3,5.9,2
			c2,0.3,4.3,0.7,6.3,0.7c3.3,0,5.9-0.7,7.9-1.7c2-1.3,2.6-3,2.6-5c0-1.7-0.3-2.6-1.3-3.6c-1-1-2.6-2-5.3-3l-7.9-2.3
			c-4-1.3-6.9-3-8.6-5.3c-1.7-2.3-2.6-5-2.6-7.9c0-2.3,0.3-4.3,1.3-5.9c1-1.7,2.3-3.3,4-4.3c1.7-1.3,3.3-2,5.6-2.6
			c2-0.7,4.3-1,6.6-1c1.3,0,2.3,0,3.6,0.3c1.3,0,2.3,0.3,3.3,0.7c1,0.3,2,0.7,3,1s1.7,0.7,2.3,1c0.7,0.3,1.3,1,1.7,1.3
			c0.3,0.3,0.3,1,0.3,1.7v2.6c0,1-0.3,1.7-1.3,1.7c-0.3,0-1-0.3-2-0.7c-3-1.3-6.6-2-10.2-2c-3,0-5.3,0.7-7.3,1.7
			c-1.7,1-2.6,2.6-2.6,4.6c0,1.7,0.7,2.6,1.7,3.6c1,1,3,2,5.9,3l7.6,2.3c4,1.3,6.6,3,8.3,5.3c1.7,2.3,2.6,4.6,2.6,7.6
			c0,2.3-0.3,4.3-1.3,6.3c-1,2-2.3,3.3-4,4.6c-1.7,1.3-3.6,2.3-5.9,3C175.8,121,173.5,121.3,170.5,121.3z"/>
		<g>
			<path class="st1" d="M180.8,147.1c-17.5,12.9-43.3,19.8-65.1,19.8c-30.7,0-58.8-11.6-79.6-30.4c-1.7-1.7-0.3-3.6,1.7-2.3
				c22.8,13.2,50.9,21.2,79.6,21.2c19.5,0,41-4,60.8-12.6C181.1,141.8,183.7,145.1,180.8,147.1z"/>
			<path class="st1" d="M188,138.8c-2.3-3-14.9-1.3-20.5-0.7c-1.7,0.3-2-1.3-0.3-2.3c10.2-6.9,26.8-5,28.4-2.6
				c2,2.3-0.7,18.8-9.9,26.8c-1.3,1.3-3,0.7-2.3-1C185.7,153.7,190.4,141.8,188,138.8z"/>
		</g>
	</g>
</g>
</svg>
