<!DOCTYPE svg PUBLIC "-//W3C//DTD SVG 20010904//EN" "http://www.w3.org/TR/2001/REC-SVG-20010904/DTD/svg10.dtd">
<svg version="1.0" xmlns="http://www.w3.org/2000/svg" width="600px" height="600px" viewBox="0 0 6000 6000" preserveAspectRatio="xMidYMid meet">
<g id="layer101" fill="#ff9900" stroke="none">
 <path d="M2915 5261 c-2 -2 -17 -4 -32 -6 -15 -1 -46 -10 -67 -19 -22 -9 -50 -19 -63 -22 -13 -4 -23 -10 -23 -14 0 -4 -8 -10 -17 -14 -21 -7 -99 -51 -280 -155 -70 -41 -139 -81 -153 -89 -14 -8 -43 -25 -65 -38 -22 -13 -51 -29 -65 -36 -14 -7 -27 -15 -30 -19 -3 -4 -26 -16 -52 -28 -25 -11 -52 -26 -60 -33 -15 -14 -47 -34 -93 -57 -16 -8 -36 -21 -43 -28 -7 -7 -21 -13 -29 -13 -9 0 -24 -6 -32 -14 -9 -8 -32 -22 -51 -33 -19 -10 -89 -50 -155 -89 -135 -80 -172 -101 -197 -110 -10 -3 -18 -10 -18 -15 0 -5 -6 -9 -12 -9 -7 0 -24 -9 -38 -20 -14 -11 -32 -20 -41 -20 -8 0 -24 -8 -35 -18 -10 -9 -40 -28 -67 -41 -26 -13 -47 -30 -47 -36 0 -7 -9 -15 -20 -18 -11 -3 -20 -12 -20 -21 0 -9 -6 -16 -12 -16 -15 -1 -58 -64 -58 -85 0 -7 -5 -15 -10 -17 -13 -4 -59 -116 -60 -144 0 -12 -7 -35 -15 -50 -13 -25 -15 -151 -15 -937 0 -793 2 -912 15 -944 9 -20 13 -43 11 -50 -3 -7 -1 -15 4 -18 6 -4 10 -15 10 -25 0 -20 39 -93 52 -98 4 -2 8 -10 8 -17 0 -20 43 -84 56 -85 7 0 14 -9 17 -20 3 -11 12 -20 21 -20 9 0 16 -6 16 -13 0 -8 21 -25 47 -38 27 -13 50 -27 53 -31 3 -4 22 -14 41 -22 20 -8 41 -22 49 -30 7 -9 21 -16 31 -16 11 0 19 -4 19 -9 0 -5 8 -11 18 -15 9 -3 40 -19 67 -35 28 -16 57 -33 65 -37 20 -10 301 -172 320 -185 8 -5 29 -16 46 -24 17 -7 36 -21 44 -29 7 -9 21 -16 31 -16 11 0 19 -4 19 -9 0 -5 27 -22 60 -37 33 -15 60 -31 60 -35 0 -4 28 -22 63 -39 34 -17 71 -36 82 -43 98 -58 305 -177 343 -197 26 -13 49 -27 52 -31 3 -3 20 -12 38 -20 17 -8 32 -16 32 -19 0 -5 67 -29 160 -58 20 -6 211 -6 230 1 8 2 43 13 78 22 34 10 67 24 73 32 6 7 19 13 29 13 10 0 22 6 28 13 6 6 40 28 76 47 100 53 108 57 115 67 3 4 33 22 66 38 33 17 62 32 65 35 12 13 82 50 95 50 8 0 18 6 22 13 4 8 22 20 38 28 37 19 78 42 85 49 8 8 122 72 208 117 17 9 32 20 32 25 0 4 5 8 12 8 6 0 54 25 105 55 52 30 97 55 99 55 3 0 17 9 31 20 14 11 32 20 39 20 8 0 23 9 34 20 11 11 27 20 35 20 8 0 15 4 15 9 0 5 12 14 28 20 26 11 80 41 194 107 29 17 63 34 75 38 11 4 24 13 27 21 3 8 12 15 21 15 8 0 15 7 15 15 0 8 4 15 10 15 10 0 60 47 60 58 0 4 14 24 30 46 31 41 90 174 96 215 4 35 4 1879 -1 1913 -10 79 -147 316 -182 318 -7 0 -13 7 -13 15 0 8 -9 15 -20 15 -11 0 -20 6 -20 13 0 7 -26 25 -57 40 -32 15 -80 40 -108 56 -27 16 -72 41 -99 56 -27 15 -56 33 -63 41 -8 8 -18 14 -23 14 -9 0 -201 109 -210 120 -3 3 -32 19 -65 35 -32 17 -64 34 -70 38 -18 14 -78 50 -130 77 -61 32 -98 53 -105 60 -3 3 -30 18 -60 34 -30 16 -59 35 -63 43 -4 7 -14 13 -22 13 -13 0 -83 37 -95 50 -3 3 -32 19 -65 35 -33 17 -62 32 -65 35 -10 10 -65 44 -120 73 -30 16 -62 36 -71 43 -8 8 -23 14 -31 14 -9 0 -21 6 -27 14 -7 8 -23 17 -36 20 -13 3 -37 11 -52 17 -15 6 -41 13 -58 15 -44 6 -206 10 -210 5z m-110 -490 c3 -5 7 -405 8 -888 2 -483 6 -888 8 -899 3 -12 13 -33 22 -47 9 -15 17 -30 17 -35 0 -25 98 -105 167 -137 24 -11 43 -23 43 -26 0 -3 16 -11 35 -19 19 -8 35 -17 35 -22 0 -4 5 -8 12 -8 6 0 26 -11 44 -25 18 -14 39 -25 48 -25 8 0 17 -4 21 -9 3 -6 18 -16 33 -24 36 -18 76 -41 82 -47 3 -3 19 -12 35 -20 17 -8 71 -39 121 -67 50 -29 96 -53 102 -53 7 0 12 -4 12 -8 0 -5 15 -16 33 -25 85 -45 199 -109 207 -117 7 -7 48 -30 85 -49 17 -8 34 -20 38 -28 4 -7 14 -13 22 -13 8 0 56 -25 108 -55 51 -30 99 -55 105 -55 5 0 12 -3 14 -7 5 -11 55 -44 120 -78 41 -21 58 -36 62 -55 6 -31 -11 -48 -84 -86 -30 -16 -57 -31 -60 -34 -3 -3 -16 -11 -29 -18 -13 -8 -40 -23 -60 -34 -20 -12 -61 -35 -91 -51 -30 -17 -56 -34 -58 -39 -2 -4 -10 -8 -17 -8 -15 0 -118 -61 -123 -72 -2 -5 -9 -8 -14 -8 -10 0 -56 -26 -198 -109 -19 -11 -51 -29 -70 -39 -47 -25 -84 -46 -90 -52 -7 -7 -45 -28 -105 -60 -58 -31 -115 -65 -131 -78 -6 -5 -21 -13 -35 -17 -13 -4 -35 -16 -48 -26 -13 -11 -30 -19 -37 -19 -8 0 -14 -4 -14 -8 0 -11 -100 -60 -130 -64 -14 -2 -30 -6 -35 -10 -6 -4 -17 -3 -25 3 -8 5 -24 9 -35 9 -19 0 -113 45 -125 59 -3 3 -32 20 -65 36 -33 17 -62 32 -65 35 -14 15 -103 68 -156 93 -17 8 -35 20 -38 26 -4 6 -15 11 -25 11 -10 0 -24 7 -31 14 -6 8 -33 25 -58 37 -26 13 -49 25 -52 28 -9 11 -44 31 -82 47 -21 9 -38 20 -38 25 0 5 -5 9 -10 9 -6 0 -74 36 -151 80 -76 44 -144 80 -149 80 -6 0 -10 4 -10 9 0 5 -16 15 -35 22 -19 7 -35 17 -35 21 0 4 -15 14 -34 22 -18 8 -37 19 -40 25 -4 6 -15 11 -25 11 -10 0 -24 7 -31 14 -6 8 -33 25 -58 37 -26 13 -49 25 -52 28 -7 8 -38 27 -85 51 -92 47 -115 66 -154 125 l-26 40 0 900 c0 872 1 901 19 930 26 39 78 95 89 95 5 0 20 9 34 20 14 11 33 20 43 20 9 0 25 9 35 20 10 11 24 20 32 20 7 0 13 3 13 8 0 4 22 17 49 29 26 13 54 30 61 38 7 8 19 15 27 15 7 0 26 8 41 18 15 10 36 23 47 29 11 7 70 41 130 76 61 35 120 67 133 71 12 4 22 10 22 14 0 4 26 21 58 37 31 17 59 33 62 36 3 3 30 19 60 35 30 16 57 32 58 37 2 4 11 7 19 7 18 0 103 51 103 63 0 4 8 7 17 7 9 0 24 6 32 14 9 7 41 27 71 43 56 30 111 63 120 73 21 23 94 38 105 21z"/>
 </g>

</svg>