<?xml version="1.0" encoding="utf-8"?>
<!-- Generator: Adobe Illustrator 22.1.0, SVG Export Plug-In . SVG Version: 6.00 Build 0)  -->
<svg version="1.1" id="Layer_1" xmlns="http://www.w3.org/2000/svg" xmlns:xlink="http://www.w3.org/1999/xlink" x="0px" y="0px"
	 viewBox="0 0 248.4 273.6" style="enable-background:new 0 0 248.4 273.6;" xml:space="preserve">
<style type="text/css">
	.st0{fill:#FF9900;}
</style>
<g id="layer101">
	<path class="st0" d="M121.7,205.1c-0.1-0.1-0.5-0.1-1-0.2c-0.5,0-1.4-0.3-2-0.6c-0.7-0.3-1.5-0.6-1.9-0.7c-0.4-0.1-0.7-0.3-0.7-0.4
		c0-0.1-0.2-0.3-0.5-0.4c-0.6-0.2-3-1.5-8.4-4.7c-2.1-1.2-4.2-2.4-4.6-2.7s-1.3-0.8-2-1.1c-0.7-0.4-1.5-0.9-2-1.1
		c-0.4-0.2-0.8-0.5-0.9-0.6c-0.1-0.1-0.8-0.5-1.6-0.8c-0.8-0.3-1.6-0.8-1.8-1c-0.5-0.4-1.4-1-2.8-1.7c-0.5-0.2-1.1-0.6-1.3-0.8
		c-0.2-0.2-0.6-0.4-0.9-0.4c-0.3,0-0.7-0.2-1-0.4c-0.3-0.2-1-0.7-1.5-1c-0.6-0.3-2.7-1.5-4.7-2.7c-4.1-2.4-5.2-3-5.9-3.3
		c-0.3-0.1-0.5-0.3-0.5-0.5s-0.2-0.3-0.4-0.3c-0.2,0-0.7-0.3-1.1-0.6c-0.4-0.3-1-0.6-1.2-0.6c-0.2,0-0.7-0.2-1.1-0.5
		c-0.3-0.3-1.2-0.8-2-1.2c-0.8-0.4-1.4-0.9-1.4-1.1c0-0.2-0.3-0.5-0.6-0.5s-0.6-0.4-0.6-0.6s-0.2-0.5-0.4-0.5
		c-0.5,0-1.7-1.9-1.7-2.6c0-0.2-0.2-0.5-0.3-0.5c-0.4-0.1-1.8-3.5-1.8-4.3c0-0.4-0.2-1.1-0.5-1.5c-0.4-0.8-0.5-4.6-0.5-28.3
		c0-23.9,0.1-27.5,0.5-28.5c0.3-0.6,0.4-1.3,0.3-1.5c-0.1-0.2,0-0.5,0.1-0.5c0.2-0.1,0.3-0.5,0.3-0.8c0-0.6,1.2-2.8,1.6-3
		c0.1-0.1,0.2-0.3,0.2-0.5c0-0.6,1.3-2.5,1.7-2.6c0.2,0,0.4-0.3,0.5-0.6s0.4-0.6,0.6-0.6c0.3,0,0.5-0.2,0.5-0.4
		c0-0.2,0.6-0.8,1.4-1.1c0.8-0.4,1.5-0.8,1.6-0.9c0.1-0.1,0.7-0.4,1.2-0.7c0.6-0.2,1.2-0.7,1.5-0.9c0.2-0.3,0.6-0.5,0.9-0.5
		c0.3,0,0.6-0.1,0.6-0.3c0-0.2,0.2-0.3,0.5-0.5c0.3-0.1,1.2-0.6,2-1.1c0.8-0.5,1.7-1,2-1.1c0.6-0.3,9.1-5.2,9.7-5.6
		c0.2-0.2,0.9-0.5,1.4-0.7c0.5-0.2,1.1-0.6,1.3-0.9c0.2-0.3,0.6-0.5,0.9-0.5c0.3,0,0.6-0.1,0.6-0.3c0-0.2,0.8-0.7,1.8-1.1
		c1-0.5,1.8-0.9,1.8-1.1s0.8-0.7,1.9-1.2c1-0.5,2.1-1.1,2.5-1.3c3-1.7,9.2-5.3,10.3-5.9c0.8-0.4,1.5-0.8,1.6-0.9
		c0.1-0.1,0.6-0.4,1.1-0.6c0.5-0.2,1-0.5,1-0.6c0-0.2,2-0.9,4.8-1.7c0.6-0.2,6.4-0.2,6.9,0c0.2,0.1,1.3,0.4,2.4,0.7
		c1,0.3,2,0.7,2.2,1c0.2,0.2,0.6,0.4,0.9,0.4c0.3,0,0.7,0.2,0.8,0.4c0.2,0.2,1.2,0.8,2.3,1.4c3,1.6,3.3,1.7,3.5,2
		c0.1,0.1,1,0.7,2,1.1c1,0.5,1.9,1,2,1.1c0.4,0.4,2.5,1.5,2.9,1.5c0.2,0,0.5,0.2,0.7,0.4c0.1,0.2,0.7,0.6,1.1,0.8
		c1.1,0.6,2.4,1.3,2.6,1.5c0.2,0.2,3.7,2.2,6.3,3.5c0.5,0.3,1,0.6,1,0.8c0,0.1,0.2,0.2,0.4,0.2c0.2,0,1.6,0.8,3.2,1.7
		c1.6,0.9,2.9,1.7,3,1.7c0.1,0,0.5,0.3,0.9,0.6s1,0.6,1.2,0.6c0.2,0,0.7,0.3,1,0.6s0.8,0.6,1.1,0.6c0.2,0,0.5,0.1,0.5,0.3
		c0,0.2,0.4,0.4,0.8,0.6c0.8,0.3,2.4,1.2,5.9,3.2c0.9,0.5,1.9,1,2.3,1.1c0.3,0.1,0.7,0.4,0.8,0.6s0.4,0.5,0.6,0.5
		c0.2,0,0.5,0.2,0.5,0.5s0.1,0.5,0.3,0.5c0.3,0,1.8,1.4,1.8,1.7c0,0.1,0.4,0.7,0.9,1.4c0.9,1.2,2.7,5.2,2.9,6.5
		c0.1,1.1,0.1,56.7,0,57.7c-0.3,2.4-4.4,9.5-5.5,9.6c-0.2,0-0.4,0.2-0.4,0.5s-0.3,0.5-0.6,0.5s-0.6,0.2-0.6,0.4
		c0,0.2-0.8,0.8-1.7,1.2c-1,0.5-2.4,1.2-3.3,1.7c-0.8,0.5-2.2,1.2-3,1.7c-0.8,0.5-1.7,1-1.9,1.2c-0.2,0.2-0.5,0.4-0.7,0.4
		c-0.3,0-6.1,3.3-6.3,3.6c-0.1,0.1-1,0.6-2,1.1c-1,0.5-1.9,1-2.1,1.1c-0.5,0.4-2.4,1.5-3.9,2.3c-1.8,1-3,1.6-3.2,1.8
		c-0.1,0.1-0.9,0.5-1.8,1s-1.8,1.1-1.9,1.3c-0.1,0.2-0.4,0.4-0.7,0.4c-0.4,0-2.5,1.1-2.9,1.5c-0.1,0.1-1,0.6-2,1.1
		c-1,0.5-1.9,1-2,1.1c-0.3,0.3-2,1.3-3.6,2.2c-0.9,0.5-1.9,1.1-2.1,1.3c-0.2,0.2-0.7,0.4-0.9,0.4c-0.3,0-0.6,0.2-0.8,0.4
		c-0.2,0.2-0.7,0.5-1.1,0.6c-0.4,0.1-1.1,0.3-1.6,0.5c-0.5,0.2-1.2,0.4-1.7,0.5C126.7,205.1,121.8,205.3,121.7,205.1z M118.3,190.3
		c0.1-0.2,0.2-12.2,0.2-26.8c0.1-14.6,0.2-26.8,0.2-27.1c0.1-0.4,0.4-1,0.7-1.4c0.3-0.5,0.5-0.9,0.5-1.1c0-0.8,3-3.2,5-4.1
		c0.7-0.3,1.3-0.7,1.3-0.8c0-0.1,0.5-0.3,1.1-0.6s1.1-0.5,1.1-0.7c0-0.1,0.2-0.2,0.4-0.2c0.2,0,0.8-0.3,1.3-0.8
		c0.5-0.4,1.2-0.8,1.4-0.8c0.2,0,0.5-0.1,0.6-0.3c0.1-0.2,0.5-0.5,1-0.7c1.1-0.5,2.3-1.2,2.5-1.4c0.1-0.1,0.6-0.4,1.1-0.6
		c0.5-0.2,2.1-1.2,3.6-2c1.5-0.9,2.9-1.6,3.1-1.6c0.2,0,0.4-0.1,0.4-0.2c0-0.2,0.5-0.5,1-0.8c2.6-1.4,6-3.3,6.2-3.5
		c0.2-0.2,1.4-0.9,2.6-1.5c0.5-0.2,1-0.6,1.1-0.8c0.1-0.2,0.4-0.4,0.7-0.4s1.7-0.8,3.3-1.7c1.5-0.9,3-1.7,3.2-1.7
		c0.2,0,0.4-0.1,0.4-0.2c0.2-0.3,1.7-1.3,3.6-2.4c1.2-0.6,1.7-1.1,1.9-1.7c0.2-0.9-0.3-1.4-2.5-2.6c-0.9-0.5-1.7-0.9-1.8-1
		c-0.1-0.1-0.5-0.3-0.9-0.5c-0.4-0.2-1.2-0.7-1.8-1c-0.6-0.4-1.8-1.1-2.7-1.5c-0.9-0.5-1.7-1-1.7-1.2c-0.1-0.1-0.3-0.2-0.5-0.2
		c-0.5,0-3.6-1.8-3.7-2.2c-0.1-0.2-0.3-0.2-0.4-0.2c-0.3,0-1.7-0.8-6-3.3c-0.6-0.3-1.5-0.9-2.1-1.2c-1.4-0.8-2.5-1.4-2.7-1.6
		c-0.2-0.2-1.4-0.8-3.2-1.8c-1.7-0.9-3.5-2-4-2.4c-0.2-0.2-0.6-0.4-1.1-0.5c-0.4-0.1-1.1-0.5-1.4-0.8c-0.4-0.3-0.9-0.6-1.1-0.6
		c-0.2,0-0.4-0.1-0.4-0.2c0-0.3-3-1.8-3.9-1.9c-0.4-0.1-0.9-0.2-1.1-0.3c-0.2-0.1-0.5-0.1-0.8,0.1c-0.2,0.2-0.7,0.3-1.1,0.3
		c-0.6,0-3.4,1.4-3.8,1.8c-0.1,0.1-1,0.6-2,1.1c-1,0.5-1.9,1-2,1.1c-0.4,0.5-3.1,2.1-4.7,2.8c-0.5,0.2-1.1,0.6-1.1,0.8
		c-0.1,0.2-0.5,0.3-0.8,0.3c-0.3,0-0.7,0.2-0.9,0.4c-0.2,0.2-1,0.8-1.7,1.1c-0.8,0.4-1.5,0.8-1.6,0.8c-0.3,0.3-1.3,0.9-2.5,1.4
		c-0.6,0.3-1.1,0.6-1.1,0.8s-0.2,0.3-0.3,0.3c-0.2,0-2.2,1.1-4.6,2.4c-2.3,1.3-4.3,2.4-4.5,2.4c-0.2,0-0.3,0.1-0.3,0.3
		c0,0.2-0.5,0.5-1.1,0.7s-1.1,0.5-1.1,0.6s-0.5,0.4-1,0.7c-0.5,0.2-1.1,0.6-1.2,0.8c-0.1,0.2-0.5,0.3-0.8,0.3
		c-0.3,0-0.7,0.2-0.9,0.4c-0.2,0.2-1,0.8-1.7,1.1c-0.8,0.4-1.5,0.8-1.6,0.8c-0.2,0.2-1.1,0.8-2.6,1.5c-2.8,1.4-3.5,2-4.6,3.8
		l-0.8,1.2v27.1c0,26.3,0,27.2,0.6,28c0.8,1.2,2.4,2.9,2.7,2.9c0.2,0,0.6,0.3,1,0.6s1,0.6,1.3,0.6c0.3,0,0.8,0.3,1.1,0.6
		s0.7,0.6,1,0.6c0.2,0,0.4,0.1,0.4,0.2c0,0.1,0.7,0.5,1.5,0.9c0.8,0.4,1.6,0.9,1.8,1.1s0.6,0.5,0.8,0.5c0.2,0,0.8,0.2,1.2,0.5
		s1.1,0.7,1.4,0.9c0.3,0.2,2.1,1.2,3.9,2.3c1.8,1.1,3.6,2,4,2.1c0.4,0.1,0.7,0.3,0.7,0.4c0,0.1,0.8,0.6,1.7,1.1
		c0.9,0.5,1.8,1,1.9,1.1s0.9,0.6,1.8,1.1c0.9,0.5,1.7,1,1.7,1.1c0.1,0.1,0.3,0.2,0.6,0.2c0.5,0,3.1,1.5,3.1,1.9
		c0,0.1,0.2,0.2,0.5,0.2c0.3,0,0.7,0.2,1,0.4c0.3,0.2,1.2,0.8,2.1,1.3c1.7,0.9,3.3,1.9,3.6,2.2C115.8,190.4,118,190.8,118.3,190.3z"
		/>
</g>
</svg>
