<?xml version="1.0" encoding="utf-8"?>
<!-- Generator: Adobe Illustrator 24.1.0, SVG Export Plug-In . SVG Version: 6.00 Build 0)  -->
<svg version="1.1" id="Layer_1" xmlns="http://www.w3.org/2000/svg" xmlns:xlink="http://www.w3.org/1999/xlink" x="0px" y="0px"
	 viewBox="0 0 496 150" style="enable-background:new 0 0 496 150;" xml:space="preserve">
<style type="text/css">
	.st0{clip-path:url(#SVGID_2_);fill:#EEEEEE;}
	.st1{clip-path:url(#SVGID_4_);fill:#FFFFFF;}
	.st2{clip-path:url(#SVGID_6_);}
	.st3{clip-path:url(#SVGID_11_);}
	.st4{clip-path:url(#SVGID_12_);}
	.st5{clip-path:url(#SVGID_13_);}
	.st6{clip-path:url(#SVGID_14_);fill:#DB4437;}
	.st7{clip-path:url(#SVGID_14_);fill:#0F9D58;}
	.st8{clip-path:url(#SVGID_14_);fill:#FFCD40;}
	.st9{clip-path:url(#SVGID_14_);}
	.st10{fill:#F1F1F1;}
	.st11{fill:#4285F4;}
	.st12{clip-path:url(#SVGID_16_);fill:#212121;fill-opacity:0.05;}
	.st13{fill:#212121;fill-opacity:0.02;}
	.st14{fill:#FFFFFF;fill-opacity:0.05;}
	.st15{fill:#231F20;fill-opacity:0.1;}
	.st16{fill:url(#SVGID_17_);}
	.st17{fill:none;}
	.st18{fill:#5F6368;}
</style>
<g>
	<g>
		<defs>
			<path id="SVGID_1_" d="M23.89,27.07v87.67c0,4.13,3.38,7.51,7.51,7.51h95.18c4.13,0,7.51-3.38,7.51-7.51V27.07H23.89z
				 M91.52,47.11H66.48c-2.77,0-5.01-2.24-5.01-5.01s2.24-5.01,5.01-5.01h25.05c2.77,0,5.01,2.24,5.01,5.01S94.29,47.11,91.52,47.11
				z"/>
		</defs>
		<clipPath id="SVGID_2_">
			<use xlink:href="#SVGID_1_"  style="overflow:visible;"/>
		</clipPath>
		<path class="st0" d="M23.89,27.07h110.21v95.18H23.89V27.07z"/>
	</g>
	<g>
		<defs>
			<path id="SVGID_3_" d="M23.89,27.07v87.67c0,4.13,3.38,7.51,7.51,7.51h95.18c4.13,0,7.51-3.38,7.51-7.51V27.07H23.89z
				 M91.52,47.11H66.48c-2.77,0-5.01-2.24-5.01-5.01s2.24-5.01,5.01-5.01h25.05c2.77,0,5.01,2.24,5.01,5.01S94.29,47.11,91.52,47.11
				z"/>
		</defs>
		<clipPath id="SVGID_4_">
			<use xlink:href="#SVGID_3_"  style="overflow:visible;"/>
		</clipPath>
		<path class="st1" d="M91.52,37.09H66.48c-2.77,0-5.01,2.24-5.01,5.01s2.24,5.01,5.01,5.01h25.05c2.77,0,5.01-2.24,5.01-5.01
			S94.29,37.09,91.52,37.09z"/>
	</g>
	<g>
		<defs>
			<path id="SVGID_5_" d="M23.89,27.07v87.67c0,4.13,3.38,7.51,7.51,7.51h95.18c4.13,0,7.51-3.38,7.51-7.51V27.07H23.89z
				 M91.52,47.11H66.48c-2.77,0-5.01-2.24-5.01-5.01s2.24-5.01,5.01-5.01h25.05c2.77,0,5.01,2.24,5.01,5.01S94.29,47.11,91.52,47.11
				z"/>
		</defs>
		<clipPath id="SVGID_6_">
			<use xlink:href="#SVGID_5_"  style="overflow:visible;"/>
		</clipPath>
		<g class="st2">
			<g>
				<defs>
					<circle id="SVGID_7_" cx="79" cy="114.74" r="47.59"/>
				</defs>
				<defs>
					<circle id="SVGID_8_" cx="79" cy="114.74" r="47.59"/>
				</defs>
				<defs>
					<circle id="SVGID_9_" cx="79" cy="114.74" r="47.59"/>
				</defs>
				<defs>
					<circle id="SVGID_10_" cx="79" cy="114.74" r="47.59"/>
				</defs>
				<clipPath id="SVGID_11_">
					<use xlink:href="#SVGID_7_"  style="overflow:visible;"/>
				</clipPath>
				<clipPath id="SVGID_12_" class="st3">
					<use xlink:href="#SVGID_8_"  style="overflow:visible;"/>
				</clipPath>
				<clipPath id="SVGID_13_" class="st4">
					<use xlink:href="#SVGID_9_"  style="overflow:visible;"/>
				</clipPath>
				<clipPath id="SVGID_14_" class="st5">
					<use xlink:href="#SVGID_10_"  style="overflow:visible;"/>
				</clipPath>
				<path class="st6" d="M38.97,67.15v58.41h21.3L79,93.1h47.59V67.15H38.97z M38.97,67.15v58.41h21.3L79,93.1h47.59V67.15H38.97z"
					/>
				<path class="st7" d="M31.41,162.33h45.3l21.03-21.03v-15.74l-37.47-0.01L31.41,76.07V162.33z M31.41,162.33h45.3l21.03-21.03
					v-15.74l-37.47-0.01L31.41,76.07V162.33z"/>
				<path class="st8" d="M79,93.1l18.74,32.45l-21.02,36.78h49.88V93.1H79z M79,93.1l18.74,32.45l-21.02,36.78h49.88V93.1H79z"/>
				<g class="st9">
					<circle class="st10" cx="79" cy="114.74" r="21.64"/>
					<circle class="st11" cx="79" cy="114.74" r="17.31"/>
				</g>
			</g>
			<g>
				<defs>
					<path id="SVGID_15_" d="M23.89,27.07v87.67c0,4.13,3.38,7.51,7.51,7.51h95.18c4.13,0,7.51-3.38,7.51-7.51V27.07H23.89z
						 M91.52,47.11H66.48c-2.77,0-5.01-2.24-5.01-5.01s2.24-5.01,5.01-5.01h25.05c2.77,0,5.01,2.24,5.01,5.01
						S94.29,47.11,91.52,47.11z"/>
				</defs>
				<clipPath id="SVGID_16_">
					<use xlink:href="#SVGID_15_"  style="overflow:visible;"/>
				</clipPath>
				<path class="st12" d="M23.89,27.07h110.21v47.59H23.89V27.07z"/>
			</g>
			<path class="st13" d="M23.89,74.04h110.21v0.63H23.89V74.04z"/>
			<path class="st14" d="M23.89,74.66h110.21v0.63H23.89V74.66z"/>
			<path class="st13" d="M91.52,47.11H66.48c-2.66,0-4.83-2.08-4.99-4.7c-0.01,0.11-0.02,0.21-0.02,0.31c0,2.77,2.24,5.01,5.01,5.01
				h25.05c2.77,0,5.01-2.24,5.01-5.01c0-0.11-0.01-0.21-0.02-0.31C96.36,45.03,94.19,47.11,91.52,47.11z M23.89,27.07v0.63h110.21
				v-0.63H23.89z"/>
			<path class="st15" d="M66.48,37.09h25.05c2.66,0,4.83,2.08,4.99,4.7c0.01-0.11,0.02-0.21,0.02-0.31c0-2.77-2.24-5.01-5.01-5.01
				H66.48c-2.77,0-5.01,2.24-5.01,5.01c0,0.11,0.01,0.21,0.02,0.31C61.64,39.17,63.81,37.09,66.48,37.09z M126.59,121.63H31.41
				c-4.13,0-7.51-3.38-7.51-7.51v0.63c0,4.13,3.38,7.51,7.51,7.51h95.18c4.13,0,7.51-3.38,7.51-7.51v-0.63
				C134.11,118.25,130.72,121.63,126.59,121.63z"/>
			
				<radialGradient id="SVGID_17_" cx="91.3316" cy="48.3542" r="570.079" gradientTransform="matrix(0.25 0 0 -0.25 0.75 38.75)" gradientUnits="userSpaceOnUse">
				<stop  offset="0" style="stop-color:#FFFFFF;stop-opacity:0.1"/>
				<stop  offset="1" style="stop-color:#FFFFFF;stop-opacity:0"/>
			</radialGradient>
			<path class="st16" d="M23.89,27.07v87.67c0,4.13,3.38,7.51,7.51,7.51h95.18c4.13,0,7.51-3.38,7.51-7.51V27.07H23.89z
				 M91.52,47.11H66.48c-2.77,0-5.01-2.24-5.01-5.01s2.24-5.01,5.01-5.01h25.05c2.77,0,5.01,2.24,5.01,5.01S94.29,47.11,91.52,47.11
				z"/>
			<path class="st17" d="M18.89,14.55h120.23v120.23H18.89V14.55z"/>
		</g>
	</g>
</g>
<g>
	<g>
		<path class="st18" d="M174.13,105.66c-3.9,0-7.17-1.32-9.8-3.96c-2.64-2.64-3.96-5.93-3.96-9.88c0-3.95,1.32-7.24,3.96-9.88
			c2.64-2.64,5.91-3.96,9.8-3.96c4,0,7.24,1.44,9.73,4.33l-2.37,2.29c-1.8-2.24-4.25-3.37-7.36-3.37c-2.89,0-5.32,0.97-7.31,2.92
			c-1.99,1.95-2.98,4.5-2.98,7.66c0,3.16,0.99,5.71,2.98,7.66c1.98,1.95,4.42,2.92,7.31,2.92c3.18,0,5.9-1.28,8.14-3.85l2.37,2.37
			c-1.21,1.46-2.73,2.61-4.55,3.46C178.26,105.23,176.28,105.66,174.13,105.66z"/>
		<path class="st18" d="M191.08,78.58v8.36l-0.15,2.52h0.15c0.49-0.86,1.27-1.6,2.33-2.2c1.06-0.6,2.19-0.91,3.4-0.91
			c2.24,0,3.96,0.69,5.14,2.07c1.18,1.38,1.78,3.23,1.78,5.55v11.1h-3.4V94.49c0-3.35-1.49-5.03-4.48-5.03
			c-1.41,0-2.55,0.56-3.44,1.68c-0.89,1.12-1.33,2.42-1.33,3.9v10.03h-3.4V78.58H191.08z"/>
		<path class="st18" d="M211.13,105.07h-3.4V86.94h3.26v2.96h0.15c0.35-0.99,1.05-1.8,2.13-2.44c1.07-0.64,2.11-0.96,3.13-0.96
			c1.01,0,1.86,0.15,2.55,0.44l-1.3,3.18c-0.44-0.17-1.05-0.26-1.81-0.26c-1.23,0-2.33,0.49-3.27,1.46
			c-0.95,0.97-1.42,2.25-1.42,3.83V105.07z"/>
		<path class="st18" d="M221.64,89.1c1.75-1.84,3.98-2.76,6.7-2.76s4.95,0.92,6.7,2.76c1.75,1.84,2.63,4.14,2.63,6.9
			c0,2.76-0.88,5.06-2.63,6.9c-1.75,1.84-3.98,2.76-6.7,2.76s-4.95-0.92-6.7-2.76c-1.75-1.84-2.63-4.14-2.63-6.9
			C219.01,93.24,219.89,90.94,221.64,89.1z M224.17,100.76c1.17,1.2,2.56,1.79,4.16,1.79s2.99-0.6,4.16-1.79
			c1.17-1.2,1.76-2.78,1.76-4.75c0-1.97-0.59-3.56-1.76-4.75c-1.17-1.2-2.56-1.79-4.16-1.79s-2.99,0.6-4.16,1.79
			s-1.76,2.78-1.76,4.75C222.42,97.98,223,99.56,224.17,100.76z"/>
		<path class="st18" d="M240.4,105.07V86.94h3.26v2.52h0.15c0.52-0.86,1.31-1.6,2.39-2.2c1.07-0.6,2.14-0.91,3.2-0.91
			c2.81,0,4.72,1.16,5.73,3.48c1.48-2.32,3.59-3.48,6.33-3.48c2.15,0,3.76,0.68,4.85,2.05c1.09,1.37,1.63,3.23,1.63,5.57v11.1h-3.4
			V94.49c0-1.83-0.33-3.12-1-3.88s-1.68-1.15-3.03-1.15c-1.33,0-2.44,0.57-3.31,1.7c-0.88,1.13-1.31,2.43-1.31,3.88v10.03h-3.4
			V94.49c0-1.83-0.33-3.12-1-3.88c-0.67-0.76-1.68-1.15-3.03-1.15c-1.33,0-2.44,0.57-3.31,1.7c-0.88,1.13-1.31,2.43-1.31,3.88v10.03
			H240.4z"/>
		<path class="st18" d="M280.14,105.66c-2.74,0-4.96-0.91-6.68-2.74c-1.71-1.82-2.57-4.13-2.57-6.92c0-2.64,0.83-4.91,2.5-6.81
			s3.79-2.85,6.38-2.85c2.69,0,4.84,0.88,6.46,2.63s2.42,4.09,2.42,7.03l-0.04,0.63h-14.32c0.1,1.83,0.71,3.27,1.83,4.33
			c1.12,1.06,2.44,1.59,3.94,1.59c2.44,0,4.09-1.04,4.96-3.11l3.03,1.26c-0.59,1.41-1.57,2.58-2.92,3.53
			C283.77,105.19,282.11,105.66,280.14,105.66z M285.02,93.82c-0.07-1.04-0.55-2.02-1.42-2.96c-0.88-0.94-2.18-1.41-3.9-1.41
			c-1.26,0-2.35,0.4-3.27,1.18s-1.56,1.85-1.91,3.18H285.02z"/>
		<path class="st18" d="M329.87,78.58l-7.07,26.49h-3.48l-5.7-17.46h-0.15l-5.7,17.46h-3.48l-7.36-26.49h3.55l5.59,20.83h0.15
			l5.74-17.28h3.18l5.74,17.28h0.15l5.29-20.83H329.87z"/>
		<path class="st18" d="M338.71,105.66c-2.74,0-4.96-0.91-6.68-2.74c-1.71-1.82-2.57-4.13-2.57-6.92c0-2.64,0.83-4.91,2.5-6.81
			s3.79-2.85,6.38-2.85c2.69,0,4.84,0.88,6.46,2.63s2.42,4.09,2.42,7.03l-0.04,0.63h-14.32c0.1,1.83,0.71,3.27,1.83,4.33
			c1.12,1.06,2.44,1.59,3.94,1.59c2.44,0,4.09-1.04,4.96-3.11l3.03,1.26c-0.59,1.41-1.57,2.58-2.92,3.53
			C342.35,105.19,340.68,105.66,338.71,105.66z M343.59,93.82c-0.07-1.04-0.55-2.02-1.42-2.96c-0.88-0.94-2.18-1.41-3.9-1.41
			c-1.26,0-2.35,0.4-3.27,1.18s-1.56,1.85-1.91,3.18H343.59z"/>
		<path class="st18" d="M359.91,105.66c-1.38,0-2.62-0.3-3.72-0.89s-1.92-1.33-2.46-2.22h-0.15v2.52h-3.26V78.58h3.4v8.36
			l-0.15,2.52h0.15c0.54-0.89,1.36-1.63,2.46-2.22s2.34-0.89,3.72-0.89c2.34,0,4.37,0.92,6.07,2.77c1.7,1.85,2.55,4.14,2.55,6.88
			c0,2.74-0.85,5.03-2.55,6.88C364.28,104.74,362.25,105.66,359.91,105.66z M359.35,102.55c1.58,0,2.94-0.6,4.07-1.79
			s1.7-2.78,1.7-4.75c0-1.97-0.57-3.56-1.7-4.75s-2.49-1.79-4.07-1.79c-1.6,0-2.97,0.59-4.09,1.78c-1.12,1.18-1.68,2.77-1.68,4.77
			s0.56,3.59,1.68,4.77C356.39,101.96,357.75,102.55,359.35,102.55z"/>
		<path class="st18" d="M386.73,105.66c-1.92,0-3.8-0.63-5.64-1.89s-3.04-3.02-3.61-5.29l3.11-1.26c0.37,1.46,1.13,2.68,2.28,3.68
			s2.44,1.5,3.87,1.5c1.48,0,2.74-0.39,3.79-1.17c1.05-0.78,1.57-1.83,1.57-3.16c0-1.48-0.52-2.62-1.57-3.42
			c-1.05-0.8-2.71-1.55-4.98-2.24c-2.34-0.74-4.12-1.7-5.33-2.87c-1.21-1.17-1.81-2.67-1.81-4.5c0-1.9,0.75-3.55,2.26-4.96
			c1.5-1.41,3.46-2.11,5.88-2.11c2.24,0,4.07,0.56,5.48,1.68c1.41,1.12,2.32,2.35,2.74,3.68l-3.11,1.29
			c-0.22-0.84-0.77-1.62-1.65-2.33c-0.88-0.71-2-1.07-3.38-1.07c-1.31,0-2.42,0.36-3.35,1.09s-1.39,1.63-1.39,2.72
			c0,0.99,0.43,1.82,1.28,2.5c0.85,0.68,2.1,1.29,3.76,1.83c1.31,0.42,2.4,0.83,3.27,1.22c0.88,0.39,1.76,0.92,2.66,1.57
			c0.9,0.65,1.58,1.47,2.04,2.44c0.46,0.97,0.68,2.1,0.68,3.38c0,1.28-0.27,2.43-0.8,3.44c-0.53,1.01-1.23,1.81-2.11,2.41
			c-0.88,0.59-1.82,1.04-2.83,1.35C388.83,105.51,387.79,105.66,386.73,105.66z"/>
		<path class="st18" d="M406.05,105.36c-1.9,0-3.35-0.5-4.35-1.52s-1.5-2.44-1.5-4.29v-9.51h-3.18v-3.11h3.18v-5.55h3.4v5.55h4.44
			v3.11h-4.44v9.25c0,1.97,0.81,2.96,2.44,2.96c0.62,0,1.13-0.1,1.55-0.3l1.18,2.92C408.05,105.2,407.13,105.36,406.05,105.36z"/>
		<path class="st18" d="M412.71,89.1c1.75-1.84,3.98-2.76,6.7-2.76c2.71,0,4.95,0.92,6.7,2.76c1.75,1.84,2.63,4.14,2.63,6.9
			c0,2.76-0.88,5.06-2.63,6.9c-1.75,1.84-3.98,2.76-6.7,2.76c-2.71,0-4.95-0.92-6.7-2.76c-1.75-1.84-2.63-4.14-2.63-6.9
			C410.08,93.24,410.96,90.94,412.71,89.1z M415.24,100.76c1.17,1.2,2.56,1.79,4.16,1.79c1.6,0,2.99-0.6,4.16-1.79
			c1.17-1.2,1.76-2.78,1.76-4.75c0-1.97-0.59-3.56-1.76-4.75c-1.17-1.2-2.56-1.79-4.16-1.79c-1.6,0-2.99,0.6-4.16,1.79
			s-1.76,2.78-1.76,4.75C413.49,97.98,414.07,99.56,415.24,100.76z"/>
		<path class="st18" d="M434.87,105.07h-3.4V86.94h3.26v2.96h0.15c0.35-0.99,1.05-1.8,2.13-2.44c1.07-0.64,2.12-0.96,3.13-0.96
			c1.01,0,1.86,0.15,2.55,0.44l-1.29,3.18c-0.44-0.17-1.05-0.26-1.81-0.26c-1.23,0-2.33,0.49-3.27,1.46
			c-0.95,0.97-1.42,2.25-1.42,3.83V105.07z"/>
		<path class="st18" d="M452,105.66c-2.74,0-4.96-0.91-6.68-2.74c-1.71-1.82-2.57-4.13-2.57-6.92c0-2.64,0.83-4.91,2.5-6.81
			s3.79-2.85,6.38-2.85c2.69,0,4.84,0.88,6.46,2.63s2.42,4.09,2.42,7.03l-0.04,0.63h-14.32c0.1,1.83,0.71,3.27,1.83,4.33
			c1.12,1.06,2.44,1.59,3.94,1.59c2.44,0,4.09-1.04,4.96-3.11l3.03,1.26c-0.59,1.41-1.57,2.58-2.92,3.53
			C455.64,105.19,453.97,105.66,452,105.66z M456.88,93.82c-0.07-1.04-0.55-2.02-1.42-2.96c-0.88-0.94-2.18-1.41-3.9-1.41
			c-1.26,0-2.35,0.4-3.27,1.18s-1.56,1.85-1.91,3.18H456.88z"/>
	</g>
	<g>
		<path class="st18" d="M162.34,63.94l7.56-20.05h2.91l7.56,20.05h-2.86l-1.93-5.43h-8.43l-1.96,5.43H162.34z M168.02,56.1h6.66
			l-3.28-9.04h-0.11L168.02,56.1z"/>
		<path class="st18" d="M184.96,63.94l-5.54-13.72h2.8l4.03,10.64h0.06l4.09-10.64h2.74l-5.6,13.72H184.96z"/>
		<path class="st18" d="M198.88,64.39c-1.46,0-2.67-0.42-3.65-1.26c-0.98-0.84-1.47-1.95-1.47-3.33c0-1.49,0.58-2.67,1.74-3.51
			c1.16-0.85,2.58-1.27,4.28-1.27c1.51,0,2.75,0.28,3.72,0.84v-0.39c0-1.01-0.35-1.81-1.04-2.42c-0.69-0.61-1.54-0.91-2.55-0.91
			c-0.75,0-1.42,0.18-2.03,0.53c-0.61,0.36-1.02,0.84-1.25,1.46l-2.35-1.01c0.32-0.82,0.94-1.58,1.88-2.28
			c0.93-0.7,2.17-1.05,3.7-1.05c1.75,0,3.21,0.51,4.37,1.54c1.16,1.03,1.74,2.47,1.74,4.34v8.29h-2.46v-1.9h-0.11
			C202.36,63.6,200.85,64.39,198.88,64.39z M199.3,62.03c1.06,0,2.03-0.4,2.9-1.19s1.3-1.73,1.3-2.81c-0.73-0.6-1.82-0.9-3.28-0.9
			c-1.25,0-2.19,0.27-2.83,0.81c-0.63,0.54-0.95,1.18-0.95,1.9c0,0.67,0.29,1.2,0.87,1.6C197.89,61.84,198.55,62.03,199.3,62.03z"/>
		<path class="st18" d="M211.67,46.77c-0.35,0.35-0.78,0.53-1.29,0.53s-0.93-0.18-1.29-0.53c-0.35-0.35-0.53-0.78-0.53-1.29
			s0.18-0.93,0.53-1.29c0.35-0.35,0.78-0.53,1.29-0.53s0.93,0.18,1.29,0.53c0.35,0.36,0.53,0.78,0.53,1.29
			S212.03,46.42,211.67,46.77z M211.67,63.94h-2.58V50.22h2.58V63.94z"/>
		<path class="st18" d="M217.61,63.94h-2.58V43.89h2.58V63.94z"/>
		<path class="st18" d="M224.94,64.39c-1.46,0-2.67-0.42-3.65-1.26c-0.98-0.84-1.47-1.95-1.47-3.33c0-1.49,0.58-2.67,1.74-3.51
			c1.16-0.85,2.58-1.27,4.28-1.27c1.51,0,2.75,0.28,3.72,0.84v-0.39c0-1.01-0.35-1.81-1.04-2.42c-0.69-0.61-1.54-0.91-2.55-0.91
			c-0.75,0-1.42,0.18-2.03,0.53c-0.61,0.36-1.02,0.84-1.25,1.46l-2.35-1.01c0.32-0.82,0.94-1.58,1.88-2.28
			c0.93-0.7,2.17-1.05,3.7-1.05c1.75,0,3.21,0.51,4.37,1.54c1.16,1.03,1.74,2.47,1.74,4.34v8.29h-2.46v-1.9h-0.11
			C228.42,63.6,226.92,64.39,224.94,64.39z M225.36,62.03c1.06,0,2.03-0.4,2.9-1.19s1.3-1.73,1.3-2.81c-0.73-0.6-1.82-0.9-3.28-0.9
			c-1.25,0-2.19,0.27-2.83,0.81c-0.63,0.54-0.95,1.18-0.95,1.9c0,0.67,0.29,1.2,0.87,1.6C223.95,61.84,224.62,62.03,225.36,62.03z"
			/>
		<path class="st18" d="M242.19,64.39c-1.05,0-1.98-0.22-2.81-0.67c-0.83-0.45-1.45-1.01-1.86-1.68h-0.11v1.9h-2.46V43.89h2.58v6.33
			l-0.11,1.9h0.11c0.41-0.67,1.03-1.23,1.86-1.68s1.77-0.67,2.81-0.67c1.77,0,3.3,0.7,4.59,2.1c1.29,1.4,1.93,3.14,1.93,5.21
			c0,2.07-0.64,3.81-1.93,5.21C245.5,63.69,243.96,64.39,242.19,64.39z M241.77,62.03c1.19,0,2.22-0.45,3.08-1.36
			c0.86-0.91,1.29-2.1,1.29-3.6c0-1.49-0.43-2.69-1.29-3.6c-0.86-0.91-1.89-1.36-3.08-1.36c-1.21,0-2.24,0.45-3.09,1.34
			c-0.85,0.9-1.27,2.1-1.27,3.61c0,1.51,0.42,2.72,1.27,3.61C239.53,61.59,240.56,62.03,241.77,62.03z"/>
		<path class="st18" d="M253.5,63.94h-2.58V43.89h2.58V63.94z"/>
		<path class="st18" d="M262.72,64.39c-2.07,0-3.76-0.69-5.05-2.07c-1.3-1.38-1.95-3.13-1.95-5.24c0-2,0.63-3.71,1.89-5.15
			s2.87-2.16,4.83-2.16c2.03,0,3.66,0.66,4.89,1.99s1.83,3.1,1.83,5.32l-0.03,0.48h-10.84c0.07,1.38,0.54,2.47,1.39,3.28
			c0.85,0.8,1.84,1.2,2.98,1.2c1.85,0,3.1-0.78,3.75-2.35l2.3,0.95c-0.45,1.06-1.19,1.96-2.21,2.67
			C265.47,64.03,264.21,64.39,262.72,64.39z M266.41,55.43c-0.06-0.78-0.42-1.53-1.08-2.24c-0.66-0.71-1.65-1.06-2.95-1.06
			c-0.95,0-1.78,0.3-2.48,0.9s-1.18,1.4-1.44,2.41H266.41z"/>
		<path class="st18" d="M280.47,46.77c-0.35,0.35-0.78,0.53-1.29,0.53s-0.93-0.18-1.29-0.53s-0.53-0.78-0.53-1.29
			s0.18-0.93,0.53-1.29c0.35-0.35,0.78-0.53,1.29-0.53s0.93,0.18,1.29,0.53c0.35,0.36,0.53,0.78,0.53,1.29
			S280.82,46.42,280.47,46.77z M280.47,63.94h-2.58V50.22h2.58V63.94z"/>
		<path class="st18" d="M286.29,50.22v1.9h0.11c0.37-0.65,0.96-1.21,1.76-1.67c0.8-0.46,1.66-0.69,2.58-0.69c1.7,0,3,0.52,3.89,1.57
			c0.9,1.04,1.34,2.45,1.34,4.2v8.4h-2.58v-8.01c0-2.54-1.13-3.81-3.39-3.81c-1.06,0-1.93,0.42-2.6,1.27s-1.01,1.83-1.01,2.95v7.59
			h-2.58V50.22H286.29z"/>
		<path class="st18" d="M311.1,64.16c-1.44,0-2.53-0.38-3.29-1.15s-1.13-1.85-1.13-3.25v-7.2h-2.41v-2.35h2.41v-4.2h2.58v4.2h3.36
			v2.35h-3.36v7c0,1.49,0.62,2.24,1.85,2.24c0.47,0,0.86-0.07,1.18-0.22l0.9,2.21C312.61,64.04,311.92,64.16,311.1,64.16z"/>
		<path class="st18" d="M317.79,43.89v6.33l-0.11,1.9h0.11c0.37-0.65,0.96-1.21,1.76-1.67c0.8-0.46,1.66-0.69,2.58-0.69
			c1.7,0,3,0.52,3.89,1.57c0.9,1.04,1.34,2.45,1.34,4.2v8.4h-2.58v-8.01c0-2.54-1.13-3.81-3.39-3.81c-1.06,0-1.93,0.42-2.6,1.27
			s-1.01,1.83-1.01,2.95v7.59h-2.58V43.89H317.79z"/>
		<path class="st18" d="M336.6,64.39c-2.07,0-3.76-0.69-5.05-2.07c-1.3-1.38-1.95-3.13-1.95-5.24c0-2,0.63-3.71,1.89-5.15
			s2.87-2.16,4.83-2.16c2.03,0,3.66,0.66,4.89,1.99s1.83,3.1,1.83,5.32l-0.03,0.48h-10.84c0.07,1.38,0.54,2.47,1.39,3.28
			c0.85,0.8,1.84,1.2,2.98,1.2c1.85,0,3.1-0.78,3.75-2.35l2.3,0.95c-0.45,1.06-1.19,1.96-2.21,2.67
			C339.36,64.03,338.1,64.39,336.6,64.39z M340.3,55.43c-0.06-0.78-0.42-1.53-1.08-2.24c-0.66-0.71-1.65-1.06-2.95-1.06
			c-0.95,0-1.78,0.3-2.48,0.9s-1.18,1.4-1.44,2.41H340.3z"/>
	</g>
</g>
</svg>
